<svg xmlns="http://www.w3.org/2000/svg" xmlns:xlink="http://www.w3.org/1999/xlink" width="200" height="200" class="icon" p-id="2284" t="1706769203815" version="1.1" viewBox="0 0 1024 1024"><path fill="#FFF" d="M160.48 41.264C271.328-9.216 426.592 21.296 512 188.8 616.416-16 825.264-16 929.68 86.4c104.432 102.4 104.432 307.2 0 512C856.592 752 668.624 905.6 512 1008c-156.624-102.4-344.592-256-417.68-409.6-104.432-204.8-104.432-409.6 0-512" p-id="2285"/><path fill="#F73B2F" d="M459.968 112.288C476.368 136.416 492.8 167.152 512 204.8 616.08 0.688 823.872-15.888 929.68 86.4c104.432 102.4 104.432 307.2 0 512-63.92 134.336-215.696 268.656-357.76 368.896L512 1008c-156.624-102.4-296.592-240-369.68-393.6-64.432-126.368-89.12-252.752-74.032-355.072 9.36-63.488 34.048-117.712 74.032-156.928 52.624-51.6 149.792-77.2 218.24-63.328 35.68 15.136 69.824 39.072 99.408 73.216z" p-id="2286"/><path fill="#D73636" d="M910.32 438.4C1001.184 14.88 619.2 52.048 685.024 31.008 774.608 2.368 869.488 27.376 929.68 86.4c104.432 102.4 104.432 307.2 0 512C856.592 752 512 1008 512 1008s320.832-208.48 398.32-569.6z" p-id="2287"/><path fill="#F73B2F" d="M464 496a48.432 48 90 1 0 96 0 48.432 48 90 1 0-96 0Z" p-id="2288"/></svg>